<?xml version="1.0" standalone="no"?>
<!DOCTYPE svg PUBLIC "-//W3C//DTD SVG 20010904//EN"
 "http://www.w3.org/TR/2001/REC-SVG-20010904/DTD/svg10.dtd">
<svg version="1.0" xmlns="http://www.w3.org/2000/svg"
 width="1280.000000pt" height="640.000000pt" viewBox="0 0 1280.000000 640.000000"
 preserveAspectRatio="xMidYMid meet">
<metadata>
Created by potrace 1.15, written by Peter Selinger 2001-2017
</metadata>
<g transform="translate(0.000000,640.000000) scale(0.100000,-0.100000)"
fill="#4caf50" stroke="none">
<path d="M8091 6036 c-53 -54 -134 -99 -216 -120 -58 -15 -180 -31 -405 -56
-58 -6 -132 -16 -165 -22 -109 -19 -255 -118 -255 -171 0 -32 35 -67 67 -67
16 0 23 -6 23 -20 0 -43 85 -53 191 -21 35 11 96 24 134 31 39 6 90 20 114 31
49 22 295 52 377 47 l49 -3 -35 -22 c-30 -19 -37 -20 -50 -8 -21 19 -66 29
-75 16 -11 -19 5 -50 28 -53 20 -3 18 -5 -14 -25 -46 -29 -49 -29 -49 1 0 35
-20 43 -42 16 -21 -26 -24 -56 -5 -64 9 -5 9 -7 -1 -12 -29 -13 -170 -119
-211 -157 -48 -47 -101 -123 -101 -146 0 -11 -31 -26 -102 -49 -347 -113 -747
-356 -1240 -754 -102 -82 -118 -88 -188 -68 -47 13 -128 -2 -194 -37 -29 -16
-178 -91 -333 -169 -393 -197 -576 -256 -803 -256 -138 0 -221 18 -339 74 -67
32 -101 57 -175 129 -50 50 -123 112 -163 139 -162 109 -359 146 -506 94 l-48
-16 -72 36 c-131 64 -173 71 -442 71 -255 0 -370 -11 -575 -52 -221 -44 -485
-147 -624 -243 -25 -17 -96 -56 -158 -88 -164 -84 -288 -170 -445 -309 l-82
-73 -20 38 c-28 55 -89 106 -156 131 -56 21 -58 21 -89 3 -22 -12 -44 -43 -74
-103 -70 -137 -89 -297 -43 -368 5 -7 29 -19 54 -25 l45 -12 -84 -124 c-46
-69 -110 -177 -140 -240 -31 -63 -118 -214 -194 -335 -172 -277 -203 -333
-234 -427 -41 -120 -33 -171 34 -216 33 -22 39 -23 220 -19 205 4 242 12 344
80 l51 34 -3 -68 c-6 -100 16 -288 48 -414 107 -425 373 -791 736 -1012 l86
-53 -423 1 c-233 1 -451 -2 -484 -6 -65 -8 -172 -51 -194 -79 -34 -41 34 -47
454 -44 349 3 1064 -18 1160 -33 90 -15 2007 -23 2148 -9 117 11 214 32 257
55 35 19 26 21 -200 44 -302 32 -546 49 -902 62 l-326 13 76 43 c202 115 422
323 562 531 l15 22 50 -35 c28 -19 66 -39 85 -44 82 -23 468 -44 1165 -62 525
-14 2186 -7 2440 10 413 28 581 55 614 98 39 49 117 301 235 763 268 1050 466
2086 466 2441 l0 89 29 0 c37 0 49 -15 61 -79 5 -29 13 -58 16 -64 15 -26 48
-57 61 -57 10 0 12 7 8 23 -10 30 -5 24 120 -143 127 -170 333 -436 491 -636
l112 -142 -50 -68 c-243 -334 -394 -734 -447 -1188 -6 -52 -22 -116 -38 -155
-35 -86 -43 -201 -18 -255 53 -111 207 -128 324 -36 l47 37 13 -71 c33 -182
146 -438 261 -591 119 -159 296 -317 432 -386 32 -16 58 -31 58 -34 0 -3 -294
-4 -652 -4 l-653 2 -65 -29 c-83 -36 -110 -53 -110 -70 0 -24 70 -29 340 -26
146 1 463 -4 705 -12 915 -32 1251 -39 1975 -40 785 -1 822 1 967 45 35 11 63
23 63 28 0 5 -26 11 -57 14 -32 3 -143 15 -248 26 -262 28 -611 49 -922 57
l-262 7 74 42 c126 72 206 134 315 244 167 168 283 359 349 576 48 160 55 214
55 420 0 156 -4 208 -22 292 -97 451 -376 812 -774 1003 -87 42 -219 84 -301
96 -27 3 -45 10 -40 15 14 14 144 59 213 74 121 25 262 28 520 10 324 -23 475
-24 568 -3 102 24 186 64 227 109 65 72 43 163 -60 258 -71 64 -165 121 -281
167 -143 58 -223 75 -394 84 -85 5 -216 14 -290 21 -173 15 -557 6 -700 -16
-295 -45 -543 -137 -737 -271 l-62 -43 -223 282 c-419 528 -617 781 -615 784
2 1 27 -7 57 -18 66 -25 155 -34 253 -25 l75 8 26 58 c64 141 60 284 -19 704
-20 106 -45 310 -45 368 l0 48 -98 0 c-56 0 -123 -7 -157 -16 -185 -48 -322
-198 -375 -411 l-11 -43 -44 88 c-25 48 -68 119 -97 157 -106 144 -486 495
-535 495 -10 0 -38 -20 -62 -44z m95 -830 c79 -37 73 -47 -8 -14 -81 32 -90
38 -62 38 10 0 42 -11 70 -24z m407 -1151 c18 -13 18 -17 -5 -117 -23 -103
-23 -103 -30 -58 -9 61 -9 193 -1 260 l8 55 5 -63 c4 -46 10 -67 23 -77z
m-413 -1809 c0 -8 -12 -28 -26 -43 l-26 -28 23 43 c25 45 29 50 29 28z m-4035
-376 c25 -85 45 -155 45 -157 0 -2 -64 -3 -142 -3 l-143 0 3 127 c2 71 7 131
10 135 8 7 175 58 180 54 1 -2 22 -72 47 -156z m3906 -116 c-77 -281 -115
-359 -199 -413 -83 -53 -110 -75 -126 -103 -20 -32 -61 -42 -256 -60 -181 -17
-1765 -17 -2290 0 -543 18 -1048 41 -1133 52 -69 9 -234 54 -249 69 -4 4 1 29
11 56 l19 50 133 12 c74 6 231 15 349 19 325 10 471 -14 660 -110 227 -115
341 -141 625 -140 186 1 223 4 520 49 l320 48 395 7 c400 8 451 13 581 54 158
49 284 154 377 312 37 63 98 146 87 119 -17 -43 -35 -121 -35 -150 l1 -30 36
40 c55 61 152 194 185 253 17 29 32 51 34 49 2 -2 -18 -84 -45 -183z"/>
</g>
</svg>
