<svg xmlns="http://www.w3.org/2000/svg" width="927.894" height="449.727" viewBox="0 0 927.894 449.727">
  <path id="Path_1" data-name="Path 1" d="M587.059-604.557a34.356,34.356,0,0,1-15.672,9.39c-4.208,1.174-13.06,2.426-29.384,4.382-4.208.469-9.577,1.252-11.971,1.722-7.908,1.487-18.5,9.234-18.5,13.381,0,2.5,2.539,5.243,4.861,5.243,1.161,0,1.669.469,1.669,1.565,0,3.365,6.167,4.147,13.858,1.643a93.972,93.972,0,0,1,9.722-2.426,36.218,36.218,0,0,0,8.271-2.426c3.555-1.721,21.4-4.069,27.353-3.678l3.555.235L578.28-573.8c-2.177,1.487-2.685,1.565-3.628.626-1.524-1.487-4.789-2.269-5.442-1.252a3.089,3.089,0,0,0,2.031,4.147c1.451.235,1.306.391-1.016,1.956-3.338,2.269-3.555,2.269-3.555-.078,0-2.739-1.451-3.365-3.047-1.252-1.524,2.034-1.741,4.382-.363,5.008.653.391.653.548-.073.939-2.1,1.017-12.334,9.312-15.309,12.285-3.483,3.678-7.328,9.625-7.328,11.425,0,.861-2.249,2.035-7.4,3.834-25.176,8.842-54.2,27.857-89.967,59-7.4,6.417-8.561,6.886-13.64,5.321-3.41-1.017-9.287.156-14.075,2.9-2.1,1.252-12.915,7.121-24.16,13.224-28.514,15.415-41.791,20.032-58.261,20.032-10.012,0-16.034-1.408-24.6-5.791-4.861-2.5-7.328-4.46-12.7-10.094a102.709,102.709,0,0,0-11.826-10.877c-11.754-8.529-26.047-11.425-36.712-7.356l-3.483,1.252-5.224-2.817c-9.5-5.008-12.552-5.556-32.069-5.556-18.5,0-26.845.861-41.718,4.069-16.034,3.443-35.189,11.5-45.274,19.015-1.814,1.33-6.965,4.382-11.464,6.886-11.9,6.573-20.9,13.3-32.286,24.179l-5.949,5.712L68.3-420.042a22.026,22.026,0,0,0-11.318-10.251c-4.063-1.643-4.208-1.643-6.457-.235-1.6.939-3.192,3.365-5.369,8.06-5.079,10.72-6.457,23.24-3.12,28.8a8.631,8.631,0,0,0,3.918,1.956l3.265.939-6.095,9.7a190.417,190.417,0,0,0-10.158,18.78c-2.249,4.93-8.561,16.746-14.075,26.214C6.411-314.4,4.162-310.022,1.913-302.666c-2.975,9.39-2.394,13.381,2.467,16.9,2.394,1.722,2.83,1.8,15.962,1.487,14.874-.313,17.558-.939,24.959-6.26L49-293.2l-.218,5.321c-.435,7.825,1.161,22.536,3.483,32.4,7.763,33.256,27.063,61.9,53.4,79.19l6.24,4.147-30.69-.078c-16.905-.078-32.722.157-35.116.469-4.716.626-12.479,3.991-14.075,6.182-2.467,3.208,2.467,3.678,32.939,3.443,25.321-.235,77.2,1.409,84.162,2.582,6.53,1.174,145.616,1.8,155.846.7,8.489-.861,15.527-2.5,18.646-4.3,2.539-1.487,1.886-1.643-14.511-3.443-21.911-2.5-39.614-3.834-65.444-4.852l-23.653-1.017,5.514-3.365c14.656-9,30.618-25.275,40.775-41.551l1.088-1.722,3.628,2.739a25.82,25.82,0,0,0,6.167,3.443c5.949,1.8,33.955,3.443,84.525,4.852,38.091,1.1,158.6.548,177.031-.783,29.965-2.191,42.154-4.3,44.548-7.669,2.83-3.834,8.489-23.553,17.05-59.705,19.444-82.163,33.81-163.231,33.81-191.01v-6.964h2.1c2.685,0,3.555,1.174,4.426,6.182A31.041,31.041,0,0,0,641.837-463c1.088,2.034,3.483,4.46,4.426,4.46.726,0,.871-.548.58-1.8-.726-2.348-.363-1.878,8.706,11.19,9.214,13.3,24.16,34.117,35.624,49.767l8.126,11.112-3.628,5.321c-17.631,26.136-28.586,57.436-32.432,92.962a55.309,55.309,0,0,1-2.757,12.129c-2.539,6.73-3.12,15.728-1.306,19.954,3.845,8.686,15.019,10.016,23.508,2.817l3.41-2.9.943,5.556c2.394,14.242,10.593,34.274,18.937,46.246,8.634,12.442,21.476,24.805,31.343,30.2,2.322,1.252,4.208,2.426,4.208,2.661s-21.331.313-47.305.313l-47.378-.157-4.716,2.269c-6.022,2.817-7.981,4.147-7.981,5.478,0,1.878,5.079,2.269,24.668,2.035,10.593-.078,33.592.313,51.15.939,66.387,2.5,90.765,3.052,143.294,3.13,56.955.078,59.639-.078,70.16-3.521,2.539-.861,4.571-1.8,4.571-2.191s-1.886-.861-4.135-1.1c-2.322-.235-10.375-1.174-17.993-2.035-19.009-2.191-44.33-3.834-66.895-4.46l-19.009-.548,5.369-3.287c9.142-5.634,14.946-10.486,22.854-19.093A109.316,109.316,0,0,0,873.5-240.614c3.483-12.52,3.99-16.746,3.99-32.865,0-12.207-.29-16.276-1.6-22.849-7.038-35.291-27.28-63.539-56.157-78.485a84.872,84.872,0,0,0-21.839-7.512c-1.959-.235-3.265-.782-2.9-1.174,1.016-1.1,10.448-4.617,15.454-5.791,8.779-1.956,19.009-2.191,37.728-.782,23.508,1.8,34.463,1.878,41.211.235,7.4-1.878,13.495-5.008,16.47-8.529,4.716-5.634,3.12-12.755-4.353-20.189a66.618,66.618,0,0,0-20.388-13.068c-10.375-4.539-16.18-5.869-28.586-6.573-6.167-.391-15.672-1.1-21.041-1.643-12.552-1.174-40.412-.47-50.788,1.252-21.4,3.521-39.4,10.72-53.472,21.206l-4.5,3.365-16.18-22.067c-30.4-41.316-44.766-61.114-44.621-61.348a23.287,23.287,0,0,1,4.136,1.409c4.789,1.956,11.246,2.661,18.356,1.956l5.442-.626,1.886-4.539c4.643-11.033,4.353-22.223-1.379-55.088-1.451-8.294-3.265-24.258-3.265-28.8v-3.756H680a49.741,49.741,0,0,0-11.391,1.252c-13.422,3.756-23.362,15.494-27.208,32.161l-.8,3.365-3.192-6.886a104.312,104.312,0,0,0-7.038-12.285C622.683-580.534,595.113-608,591.558-608,590.832-608,588.8-606.435,587.059-604.557Zm6.893,64.948c5.732,2.9,5.3,3.678-.58,1.1-5.877-2.5-6.53-2.974-4.5-2.974A18.673,18.673,0,0,1,593.952-539.609Zm29.529,90.066c1.306,1.017,1.306,1.33-.363,9.155-1.669,8.06-1.669,8.06-2.177,4.539a111.915,111.915,0,0,1-.073-20.345l.58-4.3.363,4.93C622.1-451.968,622.538-450.325,623.481-449.543ZM593.516-307.987a7.86,7.86,0,0,1-1.886,3.365l-1.886,2.191,1.669-3.365C593.226-309.318,593.516-309.709,593.516-307.987ZM300.762-278.565c1.814,6.651,3.265,12.129,3.265,12.285s-4.643.235-10.3.235H283.349l.218-9.938c.145-5.556.508-10.251.726-10.564.58-.548,12.7-4.539,13.06-4.226C297.424-290.616,298.948-285.138,300.762-278.565Zm283.4,9.077c-5.587,21.988-8.344,28.092-14.438,32.317-6.022,4.147-7.981,5.869-9.142,8.06-1.451,2.5-4.426,3.287-18.574,4.7-13.132,1.33-128.057,1.33-166.148,0-39.4-1.409-76.036-3.208-82.2-4.069-5.006-.7-16.978-4.226-18.066-5.4-.29-.313.073-2.269.8-4.382l1.379-3.913,9.65-.939c5.369-.47,16.76-1.174,25.321-1.487,23.58-.783,34.173,1.1,47.885,8.608,16.47,9,24.741,11.033,45.346,10.955,13.5-.078,16.179-.313,37.728-3.834l23.217-3.756,28.659-.548c29.022-.626,32.722-1.017,42.154-4.226,11.464-3.834,20.605-12.051,27.353-24.414,2.685-4.93,7.11-11.425,6.312-9.312a49.207,49.207,0,0,0-2.539,11.738l.073,2.348,2.612-3.13a154.685,154.685,0,0,0,13.422-19.8c1.233-2.269,2.322-3.991,2.467-3.834S586.116-277.235,584.157-269.488Z" transform="translate(-0.096 608)"/>
</svg>
